<svg width="50" height="50" viewBox="0 0 50 50" fill="none" xmlns="http://www.w3.org/2000/svg">
<g clip-path="url(#clip0_40_5)">
<path d="M25 30.0089C27.4613 30.0089 29.4565 27.7664 29.4565 25C29.4565 22.2337 27.4613 19.9911 25 19.9911C22.5387 19.9911 20.5435 22.2337 20.5435 25C20.5435 27.7664 22.5387 30.0089 25 30.0089Z" fill="#61DAFB"/>
<path d="M25 35.2622C38.2068 35.2622 48.913 30.6676 48.913 25C48.913 19.3323 38.2068 14.7378 25 14.7378C11.7932 14.7378 1.08694 19.3323 1.08694 25C1.08694 30.6676 11.7932 35.2622 25 35.2622Z" stroke="#61DAFB"/>
<path d="M17.0928 30.1311C23.6962 42.9863 32.5895 51.1102 36.9565 48.2763C41.3235 45.4425 39.5106 32.7241 32.9072 19.8689C26.3038 7.0138 17.4105 -1.11008 13.0435 1.72374C8.67644 4.55757 10.4894 17.276 17.0928 30.1311Z" stroke="#61DAFB"/>
<path d="M17.0928 19.869C10.4894 32.7241 8.67644 45.4425 13.0435 48.2764C17.4105 51.1102 26.3038 42.9863 32.9072 30.1312C39.5106 17.276 41.3235 4.55759 36.9565 1.72377C32.5895 -1.11006 23.6962 7.01383 17.0928 19.869Z" stroke="#61DAFB"/>
</g>
<defs>
<clipPath id="clip0_40_5">
<rect width="50" height="50" fill="white"/>
</clipPath>
</defs>
</svg>
